# xmcd
#
# Track frame offsets: 
#        150
#        20421
#        31041
#        46970
#        68174
#        87744
#        104323
#        132934
#        152824
#        170340
#        187627
#        203325
#        212822
#        234148
#
# Disc length: 3306 seconds
#
# Revision: 0
# Processed by: cddbd v1.5.2PL0 Copyright (c) Steve Scherf et al.
# Submitted via: ExactAudioCopyFreeDBPlugin 1.0
#
DISCID=a90ce80e
DTITLE=Egidio Juke Ingala and the Jacknives - tired of beggin'
DYEAR=2013
DGENRE=Blues
TTITLE0=Winehead Baby
TTITLE1=I'm tired of begin'
TTITLE2=hey little Lee
TTITLE3=cool it
TTITLE4=last words
TTITLE5=come back baby
TTITLE6=fallen Teardrops
TTITLE7=don't say a word
TTITLE8=by my side
TTITLE9=I'm leaving you
TTITLE10=she' hot
TTITLE11=pocket knife
TTITLE12=too good to be true
TTITLE13=back track
EXTD=
EXTT0=
EXTT1=
EXTT2=
EXTT3=
EXTT4=
EXTT5=
EXTT6=
EXTT7=
EXTT8=
EXTT9=
EXTT10=
EXTT11=
EXTT12=
EXTT13=
PLAYORDER=
